<svg version="1.2" xmlns="http://www.w3.org/2000/svg" viewBox="0 0 1312 300" width="1312" height="300">
	<title>sporty</title>
	<style>
		.s0 { fill: #f23a3d } 
		.s1 { fill: #ffffff } 
	</style>
	<path class="s0" d="m40.3 43.1c5.6-25.2 29.3-43.1 55.1-43.1h232.2c35.3 0 60.1 32.6 52.5 67l-38.9 187.2c-5.6 25.2-29.4 43.1-55.2 43.1h-232.3c-35.2 0-60-32.6-52.3-67z"/>
	<path class="s1" d="m347.9 40.5c0.6-2.2-2.3-3.5-3.5-1.6-14.6 23.7-41.1 74.5-92.5 61.2-11.6-3-22.5-23.1-37.8-29.7-37.7-16.2-81.5 4.6-104.4 14.5-1.7 0.7-0.9 3.2 0.8 2.9 28.8-4.8 86.6-15.7 97.3 8.2 7.7 17.1-38.5 46.8-61.3 64.1-1.4 1.1 0 3.3 1.6 2.5 17.7-8.7 36.6-15.5 56.7-19.8 32-6.9 57.3-2.6 80.5-18 33.8-22.4 57.5-66.1 62.6-84.3z"/>
	<path class="s1" d="m261.6 86.9c9.8-0.1 17.6-8.1 17.6-17.9-0.1-9.8-8.1-17.6-17.8-17.6-9.8 0.1-17.7 8.1-17.7 17.9 0.1 9.7 8.1 17.6 17.9 17.6z"/>
	<path class="s1" d="m34.7 263.3c-1.8 1.2-3-0.4-1.4-1.8 34-30.5 88.6-80.1 138.6-94.6 65.6-19 88.4-11.2 95.5 7.8 11.1 29.5-66.4 47-99.2 53.2-1.8 0.4-2.5-2.1-0.9-2.8 25.8-10.6 79.7-33.2 76.8-42-5.1-15.4-84 10.1-99.8 17.1-63.7 28.7-75.5 40-109.6 63.1z"/>
	<path class="s1" d="m444.3 210.5l29.6-34.8c13.9 17.6 39.7 29.1 65.4 29.1 16.4 0 22.7-8.4 22.7-15.9 0-9.2-12.1-14.3-28.8-20.1-26.7-9.2-63-22.1-63-59.5 0-27.4 26.8-60.5 77.7-60.5 31.1 0 61 11.3 80.2 31.7l-29.6 33.9c-14.1-16.1-38.2-23.8-56.4-23.8-13.2 0-20.7 6.9-20.7 14.6 0 8.4 12.4 13.6 28.5 19.3 27.3 8.9 63.9 23 63.9 57.8 0 34.8-29.4 64.8-78 64.8-39.1 0-73.6-14.7-91.5-36.6z"/>
	<path class="s1" d="m663.6 227.2l-15.2 69.3h-44.4l42.6-191.8h44.3l-3.7 16.1c12.1-13.8 24.4-19.6 39.7-19.6 31.3 0 52.3 20.7 52.3 57.8 0 40-25 88.1-73.3 88.1-17.3 0-33.1-6.9-42.3-19.9zm69.9-59c0-16.9-12.1-27.9-27-27.9-10.4 0-19.6 5.5-26.5 13l-9.2 42c5.7 7.5 15.8 12.6 27.6 12.6 20.1 0 35.1-18.1 35.1-39.7z"/>
	<path class="s1" d="m788.8 183.2c0-42.9 33.7-82 81.7-82 46.9 0 71.7 27.9 71.7 64.2 0 42.8-33.7 81.7-81.7 81.7-46.6 0-71.7-27.9-71.7-63.9zm108.2-15.8c0-17-10.6-27.1-27.9-27.1-21 0-34.8 19.6-34.8 40.6 0 17 10.6 27 27.9 27 20.7 0 34.8-19.5 34.8-40.5z"/>
	<path class="s1" d="m938.2 243.6l30.8-138.9h44.3l-4 17.2c11.5-12.4 27-17.2 48-17.2l-8.8 38.8c-2.3-0.5-8-1.2-14.4-1.2-12.4 0-24.8 6.1-32.6 14.1l-19 87.2z"/>
	<path class="s1" d="m1066.3 214.3c0-1.8 0.3-6.4 0.8-10.1l13.6-61.3h-23l8.6-38.2h23l8.3-38h44.3l-8.3 38h12.4l6.3 38.2h-27.3l-10.4 47.2c-0.6 2.3-0.9 4.9-0.9 6.3 0 6.9 4.4 11.5 13.3 11.5 3.1 0 7.2-1.1 8.6-2.3l0.6 35.4c-5.2 4-14.7 6.1-23.9 6.1-27 0-46-10.4-46-32.8z"/>
	<path fill-rule="evenodd" class="s1" d="m1157.6 260.6c-5.2 0-10.9-0.6-14.4-2l-8.4 39.4c6.1 1.3 13.2 2 19.9 2 25.6 0 42.3-9.2 59-36.5l98.1-158.8h-48.1l-51.5 88-11.5-88h-45.4l23.6 139.5-5.5 8.9c-3.7 5.5-8.6 7.5-15.8 7.5z"/>
</svg>