<?xml version="1.0" encoding="UTF-8" standalone="no"?>
<svg
   viewBox="0 0 196.99 64.07"
   version="1.1"
   id="svg16"
   xmlns="http://www.w3.org/2000/svg"
   xmlns:svg="http://www.w3.org/2000/svg">
  <defs
     id="defs1">
    <style
       id="style1">.cls-1{fill:#2a2953;}.cls-2{fill:#d15155;}</style>
  </defs>
  <g
     id="g16">
    <rect
       style="fill:#ffffff"
       id="rect16"
       width="52.667713"
       height="54.839577"
       x="6.2441101"
       y="4.343729" />
    <path
       class="cls-1"
       d="M161.32,59.6V67H173.7v6.41H161.32V85.9h-7.78V53.19h22.32l-1.1,6.41Z"
       transform="translate(-81.98 -44.3)"
       id="path1"
       style="fill:#ffffff" />
    <path
       class="cls-1"
       d="M188.12,76.09v-.22h-3.05c-2,0-3.27,1-3.27,2.6s.8,2.52,2.25,2.52c2.34,0,4.07-1.72,4.07-4.9m7.51-5.49V85.9h-6.14l-.71-3.71a8.5,8.5,0,0,1-7.65,4.16c-4.68,0-7.07-2.39-7.07-7s3.8-7.42,9.64-7.42h4.42v-.36c0-2.61-1.73-4-5-4A16.93,16.93,0,0,0,176,69.1V63a19.73,19.73,0,0,1,8.27-1.59c7.56,0,11.32,3.18,11.32,9.24"
       transform="translate(-81.98 -44.3)"
       id="path2"
       style="fill:#ffffff" />
    <path
       class="cls-1"
       d="M233.12,70.34V85.9H225.6V71.49c0-2.43-1-3.71-2.74-3.71-2.21,0-3.62,2.16-3.62,5.39V85.9h-7.52V71.49c0-2.43-1-3.71-2.78-3.71-2.17,0-3.63,2.16-3.63,5.39V85.9H197.8V61.81H204l.71,3.84A8.69,8.69,0,0,1,212,61.37c3.09,0,5.21,1.32,6.32,3.84a9.37,9.37,0,0,1,7.6-3.84c4.68,0,7.16,3.09,7.16,9"
       transform="translate(-81.98 -44.3)"
       id="path3"
       style="fill:#ffffff" />
    <path
       class="cls-1"
       d="M235.42,61.81h7.51V85.9h-7.51Zm-.09-10.39H243V59h-7.69Z"
       transform="translate(-81.98 -44.3)"
       id="path4"
       style="fill:#ffffff" />
    <rect
       class="cls-1"
       x="163.25"
       y="7.12"
       width="7.51"
       height="34.48"
       id="rect4"
       style="fill:#ffffff" />
    <path
       class="cls-1"
       d="M279,61.81l-14.46,39.3h-7.42l5.8-15.21-8.67-24.09h7.83l4.6,16,4.51-16Z"
       transform="translate(-81.98 -44.3)"
       id="path5"
       style="fill:#ffffff" />
    <path
       class="cls-1"
       d="M153.76,100.53l-.22-1.34A8.25,8.25,0,0,0,157,100c1.5,0,2.5-.65,2.5-1.67s-.64-1.33-1.43-1.6L156,96c-1.35-.46-2.24-1.21-2.24-2.67,0-1.82,1.38-3,3.48-3a7.72,7.72,0,0,1,3.3.77v1.31a6.61,6.61,0,0,0-3.17-.81c-1.21,0-2,.64-2,1.59s.59,1.27,1.43,1.55l2,.69c1.35.46,2.31,1.24,2.31,2.79,0,1.84-1.56,3.09-3.94,3.09a7.31,7.31,0,0,1-3.38-.73"
       transform="translate(-81.98 -44.3)"
       id="path6"
       style="fill:#ffffff" />
    <path
       class="cls-1"
       d="M169.51,93.79a2,2,0,0,0-1.85-2.09,1,1,0,0,0-.24,0H165v4.18h2.43A2,2,0,0,0,169.51,94a1,1,0,0,0,0-.24m1.57-.06A3.27,3.27,0,0,1,168,97.16a2.67,2.67,0,0,1-.4,0H165v4h-1.53V90.43h4.15a3.2,3.2,0,0,1,3.46,2.92,1.63,1.63,0,0,1,0,.38"
       transform="translate(-81.98 -44.3)"
       id="path7"
       style="fill:#ffffff" />
    <path
       class="cls-1"
       d="M180.62,95.77c0-2.53-1.24-4.22-3.1-4.22s-3.12,1.69-3.12,4.22,1.24,4.21,3.12,4.21,3.1-1.68,3.1-4.21m-7.83,0c0-3.29,1.9-5.49,4.72-5.49s4.71,2.2,4.71,5.49-1.88,5.49-4.71,5.49-4.72-2.2-4.72-5.49"
       transform="translate(-81.98 -44.3)"
       id="path8"
       style="fill:#ffffff" />
    <path
       class="cls-1"
       d="M188.8,95.68a1.88,1.88,0,0,0,2-1.76v-.23a1.9,1.9,0,0,0-1.82-2,.88.88,0,0,0-.23,0h-2.46v4Zm2.56,5.43-2.06-4.24c-.17,0-.35,0-.53,0h-2.49v4.21h-1.53V90.43h4.12a3.17,3.17,0,0,1,3.47,2.86,2.75,2.75,0,0,1,0,.4,3,3,0,0,1-1.62,2.76l2.35,4.66Z"
       transform="translate(-81.98 -44.3)"
       id="path9"
       style="fill:#ffffff" />
    <path
       class="cls-1"
       d="M201.71,91.7h-3.18v9.41H197V91.7h-3.19V90.43h7.9Z"
       transform="translate(-81.98 -44.3)"
       id="path10"
       style="fill:#ffffff" />
    <path
       class="cls-1"
       d="M203.13,100.53l-.22-1.34a8.25,8.25,0,0,0,3.45.79c1.5,0,2.5-.65,2.5-1.67s-.63-1.33-1.43-1.6L205.34,96c-1.34-.46-2.24-1.21-2.24-2.67,0-1.82,1.39-3,3.48-3a7.76,7.76,0,0,1,3.31.77v1.31a6.68,6.68,0,0,0-3.18-.81c-1.21,0-2,.64-2,1.59s.59,1.27,1.43,1.55l2,.69c1.36.46,2.31,1.24,2.31,2.79,0,1.84-1.56,3.09-3.94,3.09a7.31,7.31,0,0,1-3.38-.73"
       transform="translate(-81.98 -44.3)"
       id="path11"
       style="fill:#ffffff" />
    <path
       class="cls-1"
       d="M216.31,95.74c0-3.26,1.83-5.46,4.57-5.46a6,6,0,0,1,3,.77v1.21a5.63,5.63,0,0,0-2.69-.71c-2,0-3.3,1.68-3.3,4.19s1.33,4.24,3.34,4.24a5.47,5.47,0,0,0,2.78-.8v1.25a6.13,6.13,0,0,1-3.13.82c-2.76,0-4.59-2.2-4.59-5.51"
       transform="translate(-81.98 -44.3)"
       id="path12"
       style="fill:#ffffff" />
    <path
       class="cls-1"
       d="M232.62,99.84l-.23,1.27h-6V90.43h1.53v9.41Z"
       transform="translate(-81.98 -44.3)"
       id="path13"
       style="fill:#ffffff" />
    <path
       class="cls-1"
       d="M234.12,97.46v-7h1.53v7a2.42,2.42,0,1,0,4.82.35,2,2,0,0,0,0-.35v-7H242v7a4,4,0,0,1-7.9,0"
       transform="translate(-81.98 -44.3)"
       id="path14"
       style="fill:#ffffff" />
    <path
       class="cls-1"
       d="M251.17,98.05a1.71,1.71,0,0,0-1.63-1.79.67.67,0,0,0-.2,0h-2.8v3.58h2.79a1.72,1.72,0,0,0,1.84-1.58.74.74,0,0,0,0-.21M246.54,95H249a1.65,1.65,0,1,0,.15-3.29,1,1,0,0,0-.17,0h-2.4Zm6.2,3.09a3,3,0,0,1-2.89,3H245V90.43h4.36a2.67,2.67,0,0,1,2.89,2.44c0,.11,0,.21,0,.31a2.54,2.54,0,0,1-1.37,2.34,2.6,2.6,0,0,1,1.84,2.56"
       transform="translate(-81.98 -44.3)"
       id="path15"
       style="fill:#ffffff" />
    <path
       class="cls-2"
       d="M130.41,57.43a5.84,5.84,0,1,1-4.7-6.8,5.85,5.85,0,0,1,4.7,6.8h0m-1.17,25c-1.12,26.32-32.82,24.16-27.12,5.84a11.57,11.57,0,0,0,.52,1.5c4.23,10.29,16.86,4,17.35-7.24,1-22.31-22.32-26.25-22.48-30.76,0,0,32.77,6.2,31.73,30.65m-12.08,5.32a12.83,12.83,0,0,1-4.83,5.63c-3.48-1.22-5.62-4.6-5.36-7.4,1.07,2.55,6.68,4.05,10.19,1.77M99.28,61a25.07,25.07,0,0,1,9.3,0,29.06,29.06,0,0,1,5.73,6c-5.75-4.14-14.48-4.17-15-6.07M133.34,44.3H94.69A12.71,12.71,0,0,0,82,57h0V95.66a12.71,12.71,0,0,0,12.7,12.71h38.66a12.71,12.71,0,0,0,12.71-12.71h0V57A12.71,12.71,0,0,0,133.34,44.3h0"
       transform="translate(-81.98 -44.3)"
       id="path16" />
  </g>
</svg>
