<svg width="1312" height="300" viewBox="0 0 1312 300" fill="none" xmlns="http://www.w3.org/2000/svg">
<path d="M40.3102 43.0998C45.9138 17.9162 69.5512 0 95.3628 0H327.619C362.859 0 387.745 32.62 380.095 67.0026L341.178 254.177C335.574 279.36 311.783 297.277 285.971 297.277H53.7147C18.4746 297.277 -6.25645 264.657 1.39403 230.274L40.3102 43.0998Z" fill="#F23A3D"/>
<path d="M347.935 40.4501C348.546 38.2965 345.614 37.0076 344.446 38.9101C329.824 62.6111 303.259 113.361 251.905 100.104C240.259 97.0973 229.414 76.9672 214.106 70.3875C176.386 54.1602 132.63 74.9806 109.673 84.8712C108.025 85.586 108.756 88.0553 110.523 87.7676C139.311 82.975 197.066 72.0595 207.818 96.0162C215.466 113.067 169.346 142.756 146.526 160.101C145.111 161.173 146.464 163.361 148.055 162.589C165.805 153.931 184.722 147.127 204.786 142.802C236.799 135.898 262.128 140.235 285.329 124.794C319.053 102.357 342.759 58.6514 347.946 40.45L347.935 40.4501Z" fill="white"/>
<path d="M261.564 86.8776C271.357 86.8201 279.249 78.8351 279.191 69.0425C279.134 59.2499 271.149 51.358 261.356 51.4155C251.563 51.4729 243.672 59.458 243.729 69.2506C243.787 79.0432 251.772 86.935 261.564 86.8776Z" fill="white"/>
<path d="M34.6528 263.269C32.8683 264.482 31.6915 262.894 33.2897 261.451C67.349 230.989 121.86 181.393 171.883 166.905C237.52 147.887 260.314 155.74 267.419 174.702C278.457 204.17 200.952 221.652 168.184 227.924C166.406 228.27 165.652 225.754 167.335 225.062C193.073 214.508 247.048 191.882 244.142 183.138C239.035 167.748 160.051 193.156 144.302 200.241C80.5722 228.947 68.7552 240.159 34.6528 263.269Z" fill="white"/>
<path d="M444.317 210.524L473.949 175.714C487.758 193.263 513.65 204.77 539.254 204.77C555.652 204.77 561.981 196.427 561.981 188.947C561.981 179.741 549.899 174.563 533.213 168.809C506.458 159.603 470.209 146.657 470.209 109.258C470.209 81.9278 496.964 48.8438 547.885 48.8438C578.955 48.8438 608.874 60.0636 628.149 80.4893L598.518 114.436C584.421 98.3259 560.255 90.5584 542.131 90.5584C528.897 90.5584 521.418 97.4629 521.418 105.23C521.418 113.573 533.788 118.752 549.899 124.505C577.229 133.424 613.765 147.52 613.765 182.331C613.765 217.141 584.421 247.06 535.802 247.06C496.676 247.06 462.154 232.388 444.317 210.524Z" fill="#1E1E1E"/>
<path d="M663.599 227.21L648.352 296.542H604.048L646.626 104.655H690.929L687.189 120.766C699.272 106.957 711.643 101.203 726.89 101.203C758.248 101.203 779.249 121.916 779.249 159.028C779.249 199.016 754.221 247.06 705.889 247.06C688.628 247.06 672.805 240.156 663.599 227.21ZM733.507 168.234C733.507 151.26 721.424 140.328 706.465 140.328C696.108 140.328 686.902 145.794 679.997 153.274L670.791 195.276C676.545 202.756 686.614 207.935 698.409 207.935C718.547 207.935 733.507 189.81 733.507 168.234Z" fill="#1E1E1E"/>
<path d="M788.839 183.194C788.839 140.328 822.498 101.203 870.542 101.203C917.435 101.203 942.176 129.108 942.176 165.357C942.176 208.222 908.516 247.06 860.473 247.06C813.867 247.06 788.839 219.154 788.839 183.194ZM897.009 167.371C897.009 150.397 886.365 140.328 869.103 140.328C848.102 140.328 834.293 159.891 834.293 180.892C834.293 197.866 844.938 207.935 862.199 207.935C882.912 207.935 897.009 188.372 897.009 167.371Z" fill="#1E1E1E"/>
<path d="M938.224 243.608L969.006 104.655H1013.31L1009.28 121.916C1020.79 109.546 1036.32 104.655 1057.33 104.655L1048.46 143.545C1046.16 142.97 1040.47 142.281 1034.08 142.281C1021.71 142.281 1009.28 148.383 1001.51 156.439L982.527 243.608H938.224Z" fill="#1E1E1E"/>
<path d="M1066.28 214.264C1066.28 212.538 1066.56 207.935 1067.14 204.195L1080.66 142.917H1057.65L1066.28 104.655H1089.29L1097.63 66.6804H1141.94L1133.6 104.655H1145.95L1152.35 142.917H1124.96L1114.61 190.098C1114.03 192.4 1113.74 194.989 1113.74 196.427C1113.74 203.332 1118.06 207.935 1126.98 207.935C1130.14 207.935 1134.17 206.784 1135.61 205.633L1136.18 241.019C1131.01 245.046 1121.51 247.06 1112.31 247.06C1085.26 247.06 1066.28 236.703 1066.28 214.264Z" fill="#1E1E1E"/>
<path fill-rule="evenodd" clip-rule="evenodd" d="M1157.58 260.583C1152.4 260.583 1146.65 260.007 1143.2 258.569L1134.77 298.03C1140.92 299.34 1147.97 299.996 1154.7 299.996C1180.31 299.996 1196.99 290.79 1213.68 263.46L1311.78 104.656H1263.74L1212.24 192.688L1200.73 104.656H1155.28L1178.87 244.184L1173.4 253.103C1169.66 258.569 1164.77 260.583 1157.58 260.583Z" fill="#1E1E1E"/>
</svg>
